<svg xmlns="http://www.w3.org/2000/svg" viewBox="0 0 1600 1000" width="1600" height="1000" role="img"><defs><radialGradient id="sh" cx=".5" cy=".5" r=".5"><stop offset="0" stop-color="#241b14" stop-opacity=".3"/><stop offset="1" stop-color="#241b14" stop-opacity="0"/></radialGradient></defs><rect width="1600" height="1000" fill="#d8cfbc"/><rect x="5" y="5" width="140" height="129" rx="3" fill="#cec5b0" stroke="#241b14" stroke-opacity=".1" stroke-width="1.5"/><rect x="155" y="5" width="116" height="129" rx="3" fill="#cec5b0" stroke="#241b14" stroke-opacity=".1" stroke-width="1.5"/><rect x="5" y="186" width="151" height="178" rx="3" fill="#cec5b0" stroke="#241b14" stroke-opacity=".1" stroke-width="1.5"/><rect x="166" y="186" width="105" height="178" rx="3" fill="#cec5b0" stroke="#241b14" stroke-opacity=".1" stroke-width="1.5"/><rect x="5" y="416" width="156" height="176" rx="3" fill="#cec5b0" stroke="#241b14" stroke-opacity=".1" stroke-width="1.5"/><rect x="171" y="416" width="100" height="176" rx="3" fill="#cec5b0" stroke="#241b14" stroke-opacity=".1" stroke-width="1.5"/><rect x="5" y="648" width="170" height="178" rx="3" fill="#cec5b0" stroke="#241b14" stroke-opacity=".1" stroke-width="1.5"/><rect x="185" y="648" width="86" height="178" rx="3" fill="#cec5b0" stroke="#241b14" stroke-opacity=".1" stroke-width="1.5"/><rect x="5" y="878" width="151" height="117" rx="3" fill="#cec5b0" stroke="#241b14" stroke-opacity=".1" stroke-width="1.5"/><rect x="166" y="878" width="105" height="117" rx="3" fill="#cec5b0" stroke="#241b14" stroke-opacity=".1" stroke-width="1.5"/><rect x="329" y="5" width="90" height="129" rx="3" fill="#cec5b0" stroke="#241b14" stroke-opacity=".1" stroke-width="1.5"/><rect x="429" y="5" width="289" height="129" rx="3" fill="#cec5b0" stroke="#241b14" stroke-opacity=".1" stroke-width="1.5"/><rect x="728" y="5" width="106" height="129" rx="3" fill="#cec5b0" stroke="#241b14" stroke-opacity=".1" stroke-width="1.5"/><rect x="329" y="186" width="236" height="178" rx="3" fill="#cec5b0" stroke="#241b14" stroke-opacity=".1" stroke-width="1.5"/><rect x="575" y="186" width="150" height="178" rx="3" fill="#cec5b0" stroke="#241b14" stroke-opacity=".1" stroke-width="1.5"/><rect x="735" y="186" width="99" height="178" rx="3" fill="#cec5b0" stroke="#241b14" stroke-opacity=".1" stroke-width="1.5"/><rect x="329" y="416" width="297" height="176" rx="3" fill="#cec5b0" stroke="#241b14" stroke-opacity=".1" stroke-width="1.5"/><rect x="636" y="416" width="74" height="176" rx="3" fill="#cec5b0" stroke="#241b14" stroke-opacity=".1" stroke-width="1.5"/><rect x="721" y="416" width="113" height="176" rx="3" fill="#cec5b0" stroke="#241b14" stroke-opacity=".1" stroke-width="1.5"/><rect x="329" y="648" width="118" height="178" rx="3" fill="#cec5b0" stroke="#241b14" stroke-opacity=".1" stroke-width="1.5"/><rect x="457" y="648" width="109" height="178" rx="3" fill="#cec5b0" stroke="#241b14" stroke-opacity=".1" stroke-width="1.5"/><rect x="576" y="648" width="258" height="178" rx="3" fill="#cec5b0" stroke="#241b14" stroke-opacity=".1" stroke-width="1.5"/><rect x="329" y="878" width="163" height="117" rx="3" fill="#cec5b0" stroke="#241b14" stroke-opacity=".1" stroke-width="1.5"/><rect x="502" y="878" width="90" height="117" rx="3" fill="#cec5b0" stroke="#241b14" stroke-opacity=".1" stroke-width="1.5"/><rect x="601" y="878" width="233" height="117" rx="3" fill="#cec5b0" stroke="#241b14" stroke-opacity=".1" stroke-width="1.5"/><rect x="886" y="5" width="210" height="129" rx="3" fill="#cec5b0" stroke="#241b14" stroke-opacity=".1" stroke-width="1.5"/><rect x="1106" y="5" width="177" height="129" rx="3" fill="#cec5b0" stroke="#241b14" stroke-opacity=".1" stroke-width="1.5"/><rect x="886" y="186" width="83" height="178" rx="3" fill="#cec5b0" stroke="#241b14" stroke-opacity=".1" stroke-width="1.5"/><rect x="979" y="186" width="304" height="178" rx="3" fill="#cec5b0" stroke="#241b14" stroke-opacity=".1" stroke-width="1.5"/><rect x="886" y="416" width="129" height="176" rx="3" fill="#cec5b0" stroke="#241b14" stroke-opacity=".1" stroke-width="1.5"/><rect x="1025" y="416" width="258" height="176" rx="3" fill="#cec5b0" stroke="#241b14" stroke-opacity=".1" stroke-width="1.5"/><rect x="886" y="648" width="143" height="178" rx="3" fill="#cec5b0" stroke="#241b14" stroke-opacity=".1" stroke-width="1.5"/><rect x="1039" y="648" width="244" height="178" rx="3" fill="#cec5b0" stroke="#241b14" stroke-opacity=".1" stroke-width="1.5"/><rect x="886" y="878" width="288" height="117" rx="3" fill="#cec5b0" stroke="#241b14" stroke-opacity=".1" stroke-width="1.5"/><rect x="1184" y="878" width="99" height="117" rx="3" fill="#cec5b0" stroke="#241b14" stroke-opacity=".1" stroke-width="1.5"/><rect x="1337" y="5" width="147" height="129" rx="3" fill="#cec5b0" stroke="#241b14" stroke-opacity=".1" stroke-width="1.5"/><rect x="1494" y="5" width="101" height="129" rx="3" fill="#cec5b0" stroke="#241b14" stroke-opacity=".1" stroke-width="1.5"/><rect x="1337" y="186" width="94" height="178" rx="3" fill="#cec5b0" stroke="#241b14" stroke-opacity=".1" stroke-width="1.5"/><rect x="1441" y="186" width="154" height="178" rx="3" fill="#cec5b0" stroke="#241b14" stroke-opacity=".1" stroke-width="1.5"/><rect x="1337" y="416" width="150" height="176" rx="3" fill="#cec5b0" stroke="#241b14" stroke-opacity=".1" stroke-width="1.5"/><rect x="1497" y="416" width="98" height="176" rx="3" fill="#cec5b0" stroke="#241b14" stroke-opacity=".1" stroke-width="1.5"/><rect x="1337" y="648" width="92" height="178" rx="3" fill="#cec5b0" stroke="#241b14" stroke-opacity=".1" stroke-width="1.5"/><rect x="1439" y="648" width="156" height="178" rx="3" fill="#cec5b0" stroke="#241b14" stroke-opacity=".1" stroke-width="1.5"/><rect x="1337" y="878" width="134" height="117" rx="3" fill="#cec5b0" stroke="#241b14" stroke-opacity=".1" stroke-width="1.5"/><rect x="1481" y="878" width="114" height="117" rx="3" fill="#cec5b0" stroke="#241b14" stroke-opacity=".1" stroke-width="1.5"/><rect x="0" y="139" width="1600" height="42" fill="#f0eade"/><rect x="0" y="369" width="1600" height="42" fill="#f0eade"/><rect x="0" y="597" width="1600" height="46" fill="#f0eade"/><rect x="0" y="831" width="1600" height="42" fill="#f0eade"/><rect x="276" y="0" width="48" height="1000" fill="#f0eade"/><rect x="839" y="0" width="42" height="1000" fill="#f0eade"/><rect x="1288" y="0" width="44" height="1000" fill="#f0eade"/><rect x="0" y="597" width="1600" height="46" fill="#f4eee2"/><line x1="0" y1="620" x2="1600" y2="620" stroke="#a9542b" stroke-width="5" opacity=".6" stroke-dasharray="26 18"/><text x="1150" y="127" font-family="Space Mono, DejaVu Sans Mono, monospace" font-size="17" fill="#6f6656" letter-spacing="4" text-anchor="middle" opacity=".85">FIRST CROSS</text><text x="1150" y="357" font-family="Space Mono, DejaVu Sans Mono, monospace" font-size="17" fill="#6f6656" letter-spacing="4" text-anchor="middle" opacity=".85">SECOND CROSS</text><text x="1150" y="585" font-family="Space Mono, DejaVu Sans Mono, monospace" font-size="17" fill="#a9542b" letter-spacing="4" text-anchor="middle" opacity=".85">THIRD CROSS</text><text x="1150" y="819" font-family="Space Mono, DejaVu Sans Mono, monospace" font-size="17" fill="#6f6656" letter-spacing="4" text-anchor="middle" opacity=".85">FIFTH CROSS</text><text x="300" y="270" font-family="Space Mono, DejaVu Sans Mono, monospace" font-size="17" fill="#6f6656" letter-spacing="4" text-anchor="middle" opacity=".8" transform="rotate(-90 300 270)">MAIN ROAD</text><text x="1310" y="270" font-family="Space Mono, DejaVu Sans Mono, monospace" font-size="17" fill="#6f6656" letter-spacing="4" text-anchor="middle" opacity=".8" transform="rotate(-90 1310 270)">CHURCH STREET</text><rect x="946" y="530" width="128" height="62" rx="4" fill="#7e9481" opacity=".55" stroke="#241b14" stroke-opacity=".2" stroke-width="1.5"/><text x="1010" y="567" font-family="Space Mono, DejaVu Sans Mono, monospace" font-size="15" fill="#3f4c3f" letter-spacing="2" text-anchor="middle">BAKERY</text><rect x="560" y="652" width="132" height="70" rx="4" fill="#a9542b" opacity=".22" stroke="#a9542b" stroke-opacity=".7" stroke-width="2"/><ellipse cx="626" cy="694" rx="42" ry="14" fill="url(#sh)"/><path d="M 626,692 C 582,634 590,556 626,556 C 662,556 670,634 626,692 Z" fill="#a9542b" stroke="#241b14" stroke-opacity=".3" stroke-width="2.5"/><circle cx="626" cy="596" r="16" fill="#efe9dc"/><rect x="460" y="454" width="332" height="64" rx="4" fill="#241b14" opacity=".92"/><path d="M 616,518 L 636,518 L 626,536 Z" fill="#241b14" opacity=".92"/><text x="626" y="495" font-family="Space Mono, DejaVu Sans Mono, monospace" font-size="20" fill="#efe9dc" letter-spacing="3" text-anchor="middle">THE EARTHEN STUDIO</text><text x="626" y="736" font-family="Space Mono, DejaVu Sans Mono, monospace" font-size="15" fill="#6f6656" letter-spacing="3" text-anchor="middle" opacity=".9">NO. 14 · FOURTH SHUTTER</text><g opacity=".75"><circle cx="1490" cy="150" r="44" fill="#f0eade" stroke="#241b14" stroke-opacity=".2" stroke-width="1.5"/><path d="M 1490,118 L 1506,170 L 1490,158 L 1474,170 Z" fill="#241b14"/><text x="1490" y="112" font-family="Space Mono, DejaVu Sans Mono, monospace" font-size="15" fill="#241b14" text-anchor="middle">N</text></g><g opacity=".75"><line x1="70" y1="944" x2="270" y2="944" stroke="#241b14" stroke-width="3"/><line x1="70" y1="934" x2="70" y2="954" stroke="#241b14" stroke-width="3"/><line x1="270" y1="934" x2="270" y2="954" stroke="#241b14" stroke-width="3"/><text x="170" y="976" font-family="Space Mono, DejaVu Sans Mono, monospace" font-size="15" fill="#241b14" text-anchor="middle" letter-spacing="2">200 M</text></g><text x="1544" y="976" font-family="Space Mono, DejaVu Sans Mono, monospace" font-size="16" fill="#6f6656" letter-spacing="4" text-anchor="end" opacity=".8">COOKE TOWN, BENGALURU</text></svg>