<svg xmlns="http://www.w3.org/2000/svg" viewBox="0 0 1000 1000" width="1000" height="1000" role="img"><defs>
<linearGradient id="bg" x1="0" y1="0" x2="1" y2="1">
  <stop offset="0" stop-color="#e6dfd0"/><stop offset="1" stop-color="#c9c0aa"/>
</linearGradient>
<radialGradient id="shadow" cx=".5" cy=".5" r=".5">
  <stop offset="0" stop-color="#241b14" stop-opacity=".30"/>
  <stop offset="1" stop-color="#241b14" stop-opacity="0"/>
</radialGradient>
<linearGradient id="g6" x1="0" y1="0" x2="0" y2="1">
  <stop offset="0" stop-color="#cdbda2"/>
  <stop offset=".55" stop-color="#bda98c"/><stop offset="1" stop-color="#9d8a6e"/>
</linearGradient>
<linearGradient id="g6L" x1="0" y1="0" x2="1" y2="0">
  <stop offset="0" stop-color="#ffffff" stop-opacity=".22"/>
  <stop offset=".34" stop-color="#ffffff" stop-opacity="0"/>
  <stop offset=".78" stop-color="#241b14" stop-opacity="0"/>
  <stop offset="1" stop-color="#241b14" stop-opacity=".20"/>
</linearGradient></defs><rect width="1000" height="1000" fill="url(#bg)"/>
<ellipse cx="500.0" cy="340.0" rx="520.0" ry="420.0" fill="#f2ecdf" opacity=".55"/><ellipse cx="500" cy="734" rx="316.8" ry="69.696" fill="url(#shadow)"/><clipPath id="cp"><path d="M 250.0,330.0 L 250.8,334.3 L 251.6,338.7 L 252.5,343.0 L 253.3,347.3 L 254.1,351.7 L 254.9,356.0 L 255.8,360.3 L 256.6,364.7 L 257.4,369.0 L 258.2,373.3 L 259.0,377.7 L 259.9,382.0 L 260.7,386.3 L 261.5,390.7 L 262.3,395.0 L 263.2,399.3 L 264.0,403.7 L 264.8,408.0 L 265.6,412.3 L 266.4,416.7 L 267.3,421.0 L 268.1,425.3 L 268.9,429.7 L 269.7,434.0 L 270.6,438.3 L 271.4,442.7 L 272.2,447.0 L 273.0,451.3 L 273.8,455.7 L 274.7,460.0 L 275.5,464.3 L 276.3,468.7 L 277.1,473.0 L 278.0,477.3 L 278.8,481.7 L 279.6,486.0 L 280.4,490.3 L 281.2,494.7 L 282.1,499.0 L 282.9,503.3 L 283.7,507.7 L 284.5,512.0 L 285.4,516.3 L 286.2,520.7 L 287.0,525.0 L 287.8,529.3 L 288.6,533.7 L 289.5,538.0 L 290.3,542.3 L 291.1,546.7 L 291.9,551.0 L 292.8,555.3 L 293.6,559.7 L 294.4,564.0 L 295.2,568.3 L 296.0,572.7 L 296.9,577.0 L 297.7,581.3 L 298.5,585.7 L 299.3,590.0 L 300.2,594.3 L 301.0,598.7 L 301.8,603.0 L 302.6,607.3 L 303.4,611.7 L 304.3,616.0 L 305.1,620.3 L 305.9,624.7 L 306.7,629.0 L 307.6,633.3 L 308.4,637.7 L 309.2,642.0 L 310.0,646.3 L 310.8,650.7 L 311.7,655.0 L 312.5,659.3 L 313.3,663.7 L 314.1,668.0 L 315.0,672.3 L 315.8,676.7 L 316.6,681.0 L 317.4,685.3 L 318.2,689.7 L 319.1,694.0 L 319.9,698.3 L 320.7,702.7 L 321.5,707.0 L 322.4,711.3 L 323.2,715.7 L 324.0,720.0 L 676.0,720.0 L 676.8,715.7 L 677.6,711.3 L 678.5,707.0 L 679.3,702.7 L 680.1,698.3 L 680.9,694.0 L 681.8,689.7 L 682.6,685.3 L 683.4,681.0 L 684.2,676.7 L 685.0,672.3 L 685.9,668.0 L 686.7,663.7 L 687.5,659.3 L 688.3,655.0 L 689.2,650.7 L 690.0,646.3 L 690.8,642.0 L 691.6,637.7 L 692.4,633.3 L 693.3,629.0 L 694.1,624.7 L 694.9,620.3 L 695.7,616.0 L 696.6,611.7 L 697.4,607.3 L 698.2,603.0 L 699.0,598.7 L 699.8,594.3 L 700.7,590.0 L 701.5,585.7 L 702.3,581.3 L 703.1,577.0 L 704.0,572.7 L 704.8,568.3 L 705.6,564.0 L 706.4,559.7 L 707.2,555.3 L 708.1,551.0 L 708.9,546.7 L 709.7,542.3 L 710.5,538.0 L 711.4,533.7 L 712.2,529.3 L 713.0,525.0 L 713.8,520.7 L 714.6,516.3 L 715.5,512.0 L 716.3,507.7 L 717.1,503.3 L 717.9,499.0 L 718.8,494.7 L 719.6,490.3 L 720.4,486.0 L 721.2,481.7 L 722.0,477.3 L 722.9,473.0 L 723.7,468.7 L 724.5,464.3 L 725.3,460.0 L 726.2,455.7 L 727.0,451.3 L 727.8,447.0 L 728.6,442.7 L 729.4,438.3 L 730.3,434.0 L 731.1,429.7 L 731.9,425.3 L 732.7,421.0 L 733.6,416.7 L 734.4,412.3 L 735.2,408.0 L 736.0,403.7 L 736.8,399.3 L 737.7,395.0 L 738.5,390.7 L 739.3,386.3 L 740.1,382.0 L 741.0,377.7 L 741.8,373.3 L 742.6,369.0 L 743.4,364.7 L 744.2,360.3 L 745.1,356.0 L 745.9,351.7 L 746.7,347.3 L 747.5,343.0 L 748.4,338.7 L 749.2,334.3 L 750.0,330.0 Z"/></clipPath><path d="M 250.0,330.0 L 250.8,334.3 L 251.6,338.7 L 252.5,343.0 L 253.3,347.3 L 254.1,351.7 L 254.9,356.0 L 255.8,360.3 L 256.6,364.7 L 257.4,369.0 L 258.2,373.3 L 259.0,377.7 L 259.9,382.0 L 260.7,386.3 L 261.5,390.7 L 262.3,395.0 L 263.2,399.3 L 264.0,403.7 L 264.8,408.0 L 265.6,412.3 L 266.4,416.7 L 267.3,421.0 L 268.1,425.3 L 268.9,429.7 L 269.7,434.0 L 270.6,438.3 L 271.4,442.7 L 272.2,447.0 L 273.0,451.3 L 273.8,455.7 L 274.7,460.0 L 275.5,464.3 L 276.3,468.7 L 277.1,473.0 L 278.0,477.3 L 278.8,481.7 L 279.6,486.0 L 280.4,490.3 L 281.2,494.7 L 282.1,499.0 L 282.9,503.3 L 283.7,507.7 L 284.5,512.0 L 285.4,516.3 L 286.2,520.7 L 287.0,525.0 L 287.8,529.3 L 288.6,533.7 L 289.5,538.0 L 290.3,542.3 L 291.1,546.7 L 291.9,551.0 L 292.8,555.3 L 293.6,559.7 L 294.4,564.0 L 295.2,568.3 L 296.0,572.7 L 296.9,577.0 L 297.7,581.3 L 298.5,585.7 L 299.3,590.0 L 300.2,594.3 L 301.0,598.7 L 301.8,603.0 L 302.6,607.3 L 303.4,611.7 L 304.3,616.0 L 305.1,620.3 L 305.9,624.7 L 306.7,629.0 L 307.6,633.3 L 308.4,637.7 L 309.2,642.0 L 310.0,646.3 L 310.8,650.7 L 311.7,655.0 L 312.5,659.3 L 313.3,663.7 L 314.1,668.0 L 315.0,672.3 L 315.8,676.7 L 316.6,681.0 L 317.4,685.3 L 318.2,689.7 L 319.1,694.0 L 319.9,698.3 L 320.7,702.7 L 321.5,707.0 L 322.4,711.3 L 323.2,715.7 L 324.0,720.0 L 676.0,720.0 L 676.8,715.7 L 677.6,711.3 L 678.5,707.0 L 679.3,702.7 L 680.1,698.3 L 680.9,694.0 L 681.8,689.7 L 682.6,685.3 L 683.4,681.0 L 684.2,676.7 L 685.0,672.3 L 685.9,668.0 L 686.7,663.7 L 687.5,659.3 L 688.3,655.0 L 689.2,650.7 L 690.0,646.3 L 690.8,642.0 L 691.6,637.7 L 692.4,633.3 L 693.3,629.0 L 694.1,624.7 L 694.9,620.3 L 695.7,616.0 L 696.6,611.7 L 697.4,607.3 L 698.2,603.0 L 699.0,598.7 L 699.8,594.3 L 700.7,590.0 L 701.5,585.7 L 702.3,581.3 L 703.1,577.0 L 704.0,572.7 L 704.8,568.3 L 705.6,564.0 L 706.4,559.7 L 707.2,555.3 L 708.1,551.0 L 708.9,546.7 L 709.7,542.3 L 710.5,538.0 L 711.4,533.7 L 712.2,529.3 L 713.0,525.0 L 713.8,520.7 L 714.6,516.3 L 715.5,512.0 L 716.3,507.7 L 717.1,503.3 L 717.9,499.0 L 718.8,494.7 L 719.6,490.3 L 720.4,486.0 L 721.2,481.7 L 722.0,477.3 L 722.9,473.0 L 723.7,468.7 L 724.5,464.3 L 725.3,460.0 L 726.2,455.7 L 727.0,451.3 L 727.8,447.0 L 728.6,442.7 L 729.4,438.3 L 730.3,434.0 L 731.1,429.7 L 731.9,425.3 L 732.7,421.0 L 733.6,416.7 L 734.4,412.3 L 735.2,408.0 L 736.0,403.7 L 736.8,399.3 L 737.7,395.0 L 738.5,390.7 L 739.3,386.3 L 740.1,382.0 L 741.0,377.7 L 741.8,373.3 L 742.6,369.0 L 743.4,364.7 L 744.2,360.3 L 745.1,356.0 L 745.9,351.7 L 746.7,347.3 L 747.5,343.0 L 748.4,338.7 L 749.2,334.3 L 750.0,330.0 Z" fill="url(#g6)"/><g clip-path="url(#cp)"><circle cx="652.5" cy="650.6" r="2.7" fill="#6b5947" opacity=".5"/><circle cx="376.0" cy="330.2" r="3.0" fill="#6b5947" opacity=".5"/><circle cx="484.5" cy="626.3" r="2.5" fill="#6b5947" opacity=".5"/><circle cx="640.5" cy="436.4" r="3.2" fill="#6b5947" opacity=".5"/><circle cx="619.5" cy="491.5" r="2.8" fill="#6b5947" opacity=".5"/><circle cx="594.7" cy="405.3" r="2.8" fill="#6b5947" opacity=".5"/><circle cx="658.7" cy="433.6" r="3.2" fill="#6b5947" opacity=".5"/><circle cx="596.6" cy="659.3" r="2.4" fill="#6b5947" opacity=".5"/><circle cx="288.4" cy="642.1" r="3.2" fill="#6b5947" opacity=".5"/><circle cx="471.5" cy="366.6" r="2.2" fill="#6b5947" opacity=".5"/><circle cx="570.2" cy="443.6" r="3.5" fill="#6b5947" opacity=".5"/><circle cx="546.1" cy="408.3" r="3.0" fill="#6b5947" opacity=".5"/><circle cx="427.4" cy="693.8" r="3.4" fill="#6b5947" opacity=".5"/><circle cx="507.6" cy="581.4" r="3.1" fill="#6b5947" opacity=".5"/><circle cx="658.9" cy="710.8" r="1.9" fill="#6b5947" opacity=".5"/><circle cx="427.9" cy="564.7" r="2.3" fill="#6b5947" opacity=".5"/><circle cx="546.4" cy="365.0" r="3.4" fill="#6b5947" opacity=".5"/><circle cx="513.1" cy="375.6" r="3.0" fill="#6b5947" opacity=".5"/><circle cx="402.4" cy="406.5" r="2.7" fill="#6b5947" opacity=".5"/><circle cx="311.8" cy="411.9" r="3.4" fill="#6b5947" opacity=".5"/><circle cx="603.1" cy="334.9" r="3.2" fill="#6b5947" opacity=".5"/><circle cx="248.9" cy="459.8" r="3.4" fill="#6b5947" opacity=".5"/><circle cx="562.5" cy="449.4" r="2.5" fill="#6b5947" opacity=".5"/><circle cx="442.4" cy="379.5" r="3.6" fill="#6b5947" opacity=".5"/><circle cx="268.0" cy="494.9" r="3.1" fill="#6b5947" opacity=".5"/><circle cx="446.8" cy="712.6" r="2.2" fill="#6b5947" opacity=".5"/><circle cx="749.2" cy="678.0" r="3.0" fill="#6b5947" opacity=".5"/><circle cx="702.5" cy="504.4" r="3.3" fill="#6b5947" opacity=".5"/><circle cx="654.0" cy="531.5" r="2.6" fill="#6b5947" opacity=".5"/><circle cx="606.9" cy="489.5" r="2.0" fill="#6b5947" opacity=".5"/><circle cx="628.2" cy="433.7" r="2.7" fill="#6b5947" opacity=".5"/><circle cx="647.7" cy="397.1" r="1.8" fill="#6b5947" opacity=".5"/><circle cx="304.2" cy="559.9" r="2.4" fill="#6b5947" opacity=".5"/><circle cx="373.3" cy="506.1" r="3.5" fill="#6b5947" opacity=".5"/><circle cx="372.5" cy="490.1" r="3.4" fill="#6b5947" opacity=".5"/><circle cx="558.3" cy="434.5" r="2.7" fill="#6b5947" opacity=".5"/><circle cx="488.8" cy="385.5" r="2.5" fill="#6b5947" opacity=".5"/><circle cx="399.0" cy="643.8" r="2.4" fill="#6b5947" opacity=".5"/><circle cx="582.8" cy="708.6" r="3.5" fill="#6b5947" opacity=".5"/><circle cx="435.5" cy="565.2" r="2.4" fill="#6b5947" opacity=".5"/><circle cx="447.1" cy="520.3" r="3.2" fill="#6b5947" opacity=".5"/><circle cx="727.0" cy="443.4" r="1.8" fill="#6b5947" opacity=".5"/><circle cx="473.7" cy="352.3" r="1.9" fill="#6b5947" opacity=".5"/><circle cx="642.3" cy="373.7" r="3.1" fill="#6b5947" opacity=".5"/><circle cx="428.2" cy="696.0" r="3.3" fill="#6b5947" opacity=".5"/><circle cx="272.4" cy="405.1" r="3.5" fill="#6b5947" opacity=".5"/><circle cx="559.0" cy="494.6" r="3.2" fill="#6b5947" opacity=".5"/><circle cx="663.0" cy="521.8" r="2.6" fill="#6b5947" opacity=".5"/><circle cx="292.1" cy="471.2" r="2.1" fill="#6b5947" opacity=".5"/><circle cx="565.3" cy="566.6" r="2.1" fill="#6b5947" opacity=".5"/><circle cx="566.6" cy="368.0" r="2.0" fill="#6b5947" opacity=".5"/><circle cx="575.7" cy="510.5" r="3.4" fill="#6b5947" opacity=".5"/><circle cx="567.2" cy="603.5" r="2.0" fill="#6b5947" opacity=".5"/><circle cx="673.0" cy="362.6" r="2.9" fill="#6b5947" opacity=".5"/><circle cx="713.9" cy="684.0" r="3.4" fill="#6b5947" opacity=".5"/><circle cx="475.0" cy="600.6" r="3.2" fill="#6b5947" opacity=".5"/><circle cx="311.3" cy="697.9" r="3.4" fill="#6b5947" opacity=".5"/><circle cx="469.3" cy="633.6" r="2.6" fill="#6b5947" opacity=".5"/><circle cx="383.7" cy="607.9" r="1.9" fill="#6b5947" opacity=".5"/><circle cx="656.1" cy="711.4" r="2.3" fill="#6b5947" opacity=".5"/><circle cx="728.6" cy="362.6" r="3.3" fill="#6b5947" opacity=".5"/><circle cx="385.5" cy="706.8" r="2.6" fill="#6b5947" opacity=".5"/><circle cx="719.5" cy="342.4" r="2.0" fill="#6b5947" opacity=".5"/><circle cx="664.5" cy="579.0" r="2.8" fill="#6b5947" opacity=".5"/><circle cx="257.0" cy="397.6" r="2.5" fill="#6b5947" opacity=".5"/><circle cx="267.1" cy="717.3" r="3.2" fill="#6b5947" opacity=".5"/><circle cx="733.9" cy="603.3" r="2.4" fill="#6b5947" opacity=".5"/><circle cx="280.3" cy="615.3" r="2.0" fill="#6b5947" opacity=".5"/><circle cx="524.5" cy="511.0" r="2.7" fill="#6b5947" opacity=".5"/><circle cx="279.1" cy="358.8" r="2.7" fill="#6b5947" opacity=".5"/><circle cx="255.8" cy="534.9" r="2.1" fill="#6b5947" opacity=".5"/><circle cx="386.5" cy="388.9" r="2.8" fill="#6b5947" opacity=".5"/><circle cx="441.9" cy="417.0" r="2.2" fill="#6b5947" opacity=".5"/><circle cx="533.3" cy="685.1" r="2.6" fill="#6b5947" opacity=".5"/><circle cx="324.9" cy="453.4" r="2.2" fill="#6b5947" opacity=".5"/><circle cx="537.6" cy="636.7" r="2.8" fill="#6b5947" opacity=".5"/><circle cx="337.8" cy="456.9" r="2.5" fill="#6b5947" opacity=".5"/><circle cx="469.3" cy="485.0" r="3.6" fill="#6b5947" opacity=".5"/><circle cx="526.6" cy="588.2" r="3.1" fill="#6b5947" opacity=".5"/><circle cx="575.5" cy="644.1" r="2.5" fill="#6b5947" opacity=".5"/><circle cx="586.6" cy="709.3" r="2.1" fill="#6b5947" opacity=".5"/><circle cx="565.2" cy="480.0" r="1.9" fill="#6b5947" opacity=".5"/><circle cx="260.7" cy="626.0" r="2.0" fill="#6b5947" opacity=".5"/><circle cx="609.7" cy="369.1" r="2.5" fill="#6b5947" opacity=".5"/><circle cx="256.7" cy="541.7" r="3.2" fill="#6b5947" opacity=".5"/><circle cx="357.3" cy="550.5" r="3.5" fill="#6b5947" opacity=".5"/><circle cx="392.6" cy="513.7" r="3.1" fill="#6b5947" opacity=".5"/><circle cx="689.4" cy="395.8" r="3.0" fill="#6b5947" opacity=".5"/><circle cx="302.4" cy="373.8" r="3.6" fill="#6b5947" opacity=".5"/><circle cx="266.0" cy="688.7" r="3.2" fill="#6b5947" opacity=".5"/><circle cx="591.5" cy="614.5" r="3.0" fill="#6b5947" opacity=".5"/><circle cx="389.3" cy="502.9" r="2.2" fill="#6b5947" opacity=".5"/><circle cx="686.8" cy="633.7" r="3.2" fill="#6b5947" opacity=".5"/><circle cx="351.3" cy="561.0" r="2.3" fill="#6b5947" opacity=".5"/><circle cx="651.1" cy="620.5" r="3.6" fill="#6b5947" opacity=".5"/><circle cx="608.3" cy="596.7" r="3.2" fill="#6b5947" opacity=".5"/><circle cx="288.7" cy="562.2" r="1.9" fill="#6b5947" opacity=".5"/><circle cx="430.9" cy="375.7" r="3.5" fill="#6b5947" opacity=".5"/><circle cx="254.6" cy="689.3" r="3.5" fill="#6b5947" opacity=".5"/><circle cx="466.5" cy="654.7" r="1.9" fill="#6b5947" opacity=".5"/><circle cx="312.5" cy="333.8" r="1.9" fill="#6b5947" opacity=".5"/><circle cx="241.3" cy="653.0" r="2.0" fill="#6b5947" opacity=".5"/><circle cx="547.2" cy="436.6" r="2.0" fill="#6b5947" opacity=".5"/><circle cx="458.0" cy="400.9" r="3.6" fill="#6b5947" opacity=".5"/><circle cx="439.6" cy="561.6" r="2.8" fill="#6b5947" opacity=".5"/><circle cx="566.0" cy="517.4" r="2.3" fill="#6b5947" opacity=".5"/><circle cx="311.1" cy="676.3" r="2.1" fill="#6b5947" opacity=".5"/><circle cx="473.2" cy="645.3" r="2.8" fill="#6b5947" opacity=".5"/><circle cx="733.0" cy="645.7" r="2.7" fill="#6b5947" opacity=".5"/><circle cx="302.4" cy="561.2" r="2.7" fill="#6b5947" opacity=".5"/><circle cx="688.1" cy="537.0" r="3.0" fill="#6b5947" opacity=".5"/><circle cx="662.0" cy="513.5" r="3.3" fill="#6b5947" opacity=".5"/><circle cx="707.7" cy="390.2" r="3.5" fill="#6b5947" opacity=".5"/><circle cx="692.3" cy="663.4" r="2.4" fill="#6b5947" opacity=".5"/><circle cx="370.9" cy="381.8" r="2.5" fill="#6b5947" opacity=".5"/><circle cx="684.6" cy="471.5" r="1.8" fill="#6b5947" opacity=".5"/><circle cx="398.6" cy="362.2" r="2.9" fill="#6b5947" opacity=".5"/><circle cx="639.5" cy="691.4" r="2.0" fill="#6b5947" opacity=".5"/><circle cx="437.8" cy="379.1" r="3.4" fill="#6b5947" opacity=".5"/><circle cx="675.2" cy="532.7" r="3.5" fill="#6b5947" opacity=".5"/><circle cx="510.5" cy="632.8" r="2.7" fill="#6b5947" opacity=".5"/><circle cx="429.4" cy="717.8" r="3.3" fill="#6b5947" opacity=".5"/><circle cx="547.7" cy="668.2" r="3.0" fill="#6b5947" opacity=".5"/><circle cx="654.8" cy="356.0" r="2.0" fill="#6b5947" opacity=".5"/><circle cx="296.9" cy="565.2" r="3.1" fill="#6b5947" opacity=".5"/><circle cx="320.7" cy="527.0" r="2.0" fill="#6b5947" opacity=".5"/><circle cx="597.5" cy="633.8" r="2.0" fill="#6b5947" opacity=".5"/><circle cx="749.6" cy="589.3" r="2.0" fill="#6b5947" opacity=".5"/><circle cx="422.5" cy="391.7" r="3.1" fill="#6b5947" opacity=".5"/><circle cx="716.7" cy="398.3" r="2.1" fill="#6b5947" opacity=".5"/><circle cx="567.0" cy="665.2" r="3.1" fill="#6b5947" opacity=".5"/><circle cx="478.0" cy="373.1" r="2.9" fill="#6b5947" opacity=".5"/><circle cx="476.9" cy="643.5" r="2.8" fill="#6b5947" opacity=".5"/><circle cx="621.7" cy="708.7" r="2.9" fill="#6b5947" opacity=".5"/><circle cx="714.1" cy="436.8" r="1.8" fill="#6b5947" opacity=".5"/><circle cx="698.8" cy="341.7" r="3.6" fill="#6b5947" opacity=".5"/><circle cx="477.0" cy="353.9" r="2.3" fill="#6b5947" opacity=".5"/><circle cx="615.1" cy="479.8" r="2.9" fill="#6b5947" opacity=".5"/><circle cx="293.0" cy="655.9" r="2.5" fill="#6b5947" opacity=".5"/><circle cx="673.0" cy="387.4" r="3.0" fill="#6b5947" opacity=".5"/><circle cx="483.9" cy="487.7" r="1.8" fill="#6b5947" opacity=".5"/><circle cx="516.5" cy="656.8" r="2.0" fill="#6b5947" opacity=".5"/><circle cx="471.8" cy="334.9" r="3.6" fill="#6b5947" opacity=".5"/><circle cx="744.1" cy="594.6" r="2.7" fill="#6b5947" opacity=".5"/><circle cx="276.6" cy="377.2" r="3.1" fill="#6b5947" opacity=".5"/><circle cx="653.1" cy="715.7" r="3.4" fill="#6b5947" opacity=".5"/><circle cx="467.7" cy="429.6" r="2.8" fill="#6b5947" opacity=".5"/><circle cx="419.9" cy="542.5" r="3.4" fill="#6b5947" opacity=".5"/><circle cx="475.5" cy="712.7" r="3.1" fill="#6b5947" opacity=".5"/><circle cx="263.8" cy="621.3" r="3.0" fill="#6b5947" opacity=".5"/><circle cx="563.5" cy="331.3" r="3.4" fill="#6b5947" opacity=".5"/><circle cx="497.6" cy="539.3" r="2.1" fill="#6b5947" opacity=".5"/><circle cx="258.4" cy="335.4" r="2.2" fill="#6b5947" opacity=".5"/><circle cx="398.2" cy="390.1" r="1.9" fill="#6b5947" opacity=".5"/><circle cx="618.3" cy="604.0" r="3.4" fill="#6b5947" opacity=".5"/><circle cx="353.2" cy="614.1" r="2.9" fill="#6b5947" opacity=".5"/><circle cx="286.9" cy="671.3" r="2.4" fill="#6b5947" opacity=".5"/><circle cx="336.2" cy="401.5" r="3.5" fill="#6b5947" opacity=".5"/><circle cx="354.8" cy="479.9" r="2.8" fill="#6b5947" opacity=".5"/><circle cx="426.8" cy="585.8" r="2.0" fill="#6b5947" opacity=".5"/><circle cx="463.6" cy="558.0" r="2.9" fill="#6b5947" opacity=".5"/><circle cx="556.7" cy="435.0" r="2.9" fill="#6b5947" opacity=".5"/><circle cx="745.5" cy="518.2" r="3.0" fill="#6b5947" opacity=".5"/><circle cx="675.2" cy="428.4" r="2.3" fill="#6b5947" opacity=".5"/><circle cx="744.5" cy="447.3" r="2.6" fill="#6b5947" opacity=".5"/><circle cx="432.9" cy="717.3" r="2.8" fill="#6b5947" opacity=".5"/><circle cx="706.0" cy="393.4" r="2.3" fill="#6b5947" opacity=".5"/><circle cx="577.9" cy="454.1" r="3.0" fill="#6b5947" opacity=".5"/><circle cx="504.0" cy="360.5" r="2.0" fill="#6b5947" opacity=".5"/><circle cx="468.1" cy="538.1" r="2.1" fill="#6b5947" opacity=".5"/><circle cx="376.8" cy="330.5" r="2.3" fill="#6b5947" opacity=".5"/><circle cx="400.8" cy="481.5" r="2.9" fill="#6b5947" opacity=".5"/><circle cx="683.4" cy="609.8" r="3.1" fill="#6b5947" opacity=".5"/><circle cx="387.1" cy="523.3" r="3.1" fill="#6b5947" opacity=".5"/><circle cx="704.8" cy="423.8" r="1.8" fill="#6b5947" opacity=".5"/><circle cx="266.5" cy="531.0" r="3.4" fill="#6b5947" opacity=".5"/><circle cx="319.7" cy="635.7" r="3.0" fill="#6b5947" opacity=".5"/><circle cx="689.2" cy="681.4" r="2.0" fill="#6b5947" opacity=".5"/><circle cx="652.7" cy="382.8" r="2.0" fill="#6b5947" opacity=".5"/><circle cx="447.3" cy="520.6" r="1.9" fill="#6b5947" opacity=".5"/><circle cx="383.3" cy="398.4" r="2.0" fill="#6b5947" opacity=".5"/><circle cx="291.4" cy="339.3" r="2.2" fill="#6b5947" opacity=".5"/><circle cx="410.2" cy="493.7" r="3.1" fill="#6b5947" opacity=".5"/><circle cx="558.2" cy="520.2" r="2.4" fill="#6b5947" opacity=".5"/><circle cx="559.6" cy="405.2" r="2.1" fill="#6b5947" opacity=".5"/><circle cx="298.7" cy="591.0" r="2.1" fill="#6b5947" opacity=".5"/><circle cx="355.9" cy="467.1" r="2.8" fill="#6b5947" opacity=".5"/><circle cx="576.7" cy="561.0" r="2.9" fill="#6b5947" opacity=".5"/><circle cx="340.2" cy="685.9" r="3.1" fill="#6b5947" opacity=".5"/><circle cx="451.6" cy="484.7" r="2.8" fill="#6b5947" opacity=".5"/><circle cx="302.1" cy="581.2" r="3.4" fill="#6b5947" opacity=".5"/><circle cx="429.3" cy="524.6" r="2.3" fill="#6b5947" opacity=".5"/><circle cx="713.0" cy="476.9" r="2.4" fill="#6b5947" opacity=".5"/><circle cx="610.6" cy="475.3" r="3.4" fill="#6b5947" opacity=".5"/><circle cx="453.8" cy="559.7" r="2.3" fill="#6b5947" opacity=".5"/><circle cx="546.5" cy="514.2" r="2.0" fill="#6b5947" opacity=".5"/><circle cx="702.3" cy="392.6" r="2.8" fill="#6b5947" opacity=".5"/><circle cx="592.1" cy="512.8" r="2.4" fill="#6b5947" opacity=".5"/><circle cx="475.9" cy="719.8" r="1.8" fill="#6b5947" opacity=".5"/><circle cx="700.2" cy="566.8" r="2.7" fill="#6b5947" opacity=".5"/><circle cx="571.7" cy="579.5" r="3.3" fill="#6b5947" opacity=".5"/><circle cx="747.8" cy="530.9" r="2.4" fill="#6b5947" opacity=".5"/><circle cx="428.5" cy="685.1" r="2.7" fill="#6b5947" opacity=".5"/><circle cx="276.7" cy="558.8" r="2.0" fill="#6b5947" opacity=".5"/><circle cx="420.3" cy="583.8" r="2.9" fill="#6b5947" opacity=".5"/><circle cx="519.0" cy="653.5" r="2.9" fill="#6b5947" opacity=".5"/><circle cx="744.5" cy="646.5" r="2.3" fill="#6b5947" opacity=".5"/><circle cx="646.4" cy="470.8" r="3.5" fill="#6b5947" opacity=".5"/><circle cx="562.0" cy="493.1" r="2.1" fill="#6b5947" opacity=".5"/><circle cx="680.9" cy="467.5" r="1.8" fill="#6b5947" opacity=".5"/><circle cx="657.7" cy="332.5" r="1.9" fill="#6b5947" opacity=".5"/><circle cx="255.8" cy="581.4" r="2.8" fill="#6b5947" opacity=".5"/><circle cx="491.4" cy="694.6" r="2.6" fill="#6b5947" opacity=".5"/><circle cx="347.0" cy="718.6" r="2.0" fill="#6b5947" opacity=".5"/><circle cx="265.8" cy="416.9" r="3.6" fill="#6b5947" opacity=".5"/><circle cx="457.2" cy="469.2" r="2.5" fill="#6b5947" opacity=".5"/><circle cx="432.6" cy="624.7" r="2.9" fill="#6b5947" opacity=".5"/><circle cx="385.3" cy="404.3" r="3.3" fill="#6b5947" opacity=".5"/><circle cx="532.0" cy="525.7" r="2.2" fill="#6b5947" opacity=".5"/><circle cx="747.8" cy="536.1" r="3.5" fill="#6b5947" opacity=".5"/><circle cx="590.4" cy="579.1" r="1.8" fill="#6b5947" opacity=".5"/><circle cx="715.3" cy="663.3" r="1.9" fill="#6b5947" opacity=".5"/><circle cx="282.5" cy="593.3" r="3.0" fill="#6b5947" opacity=".5"/><circle cx="340.4" cy="716.5" r="2.0" fill="#6b5947" opacity=".5"/><circle cx="535.8" cy="518.0" r="2.4" fill="#6b5947" opacity=".5"/><circle cx="587.8" cy="501.9" r="3.2" fill="#6b5947" opacity=".5"/><circle cx="640.8" cy="333.6" r="2.4" fill="#6b5947" opacity=".5"/><circle cx="522.1" cy="445.6" r="2.9" fill="#6b5947" opacity=".5"/><circle cx="255.1" cy="371.0" r="2.7" fill="#6b5947" opacity=".5"/><circle cx="351.8" cy="411.0" r="2.5" fill="#6b5947" opacity=".5"/><circle cx="549.0" cy="585.1" r="2.9" fill="#6b5947" opacity=".5"/><circle cx="499.1" cy="499.0" r="3.4" fill="#6b5947" opacity=".5"/><circle cx="689.0" cy="680.4" r="3.5" fill="#6b5947" opacity=".5"/><circle cx="589.3" cy="407.8" r="3.1" fill="#6b5947" opacity=".5"/><circle cx="387.1" cy="447.3" r="2.5" fill="#6b5947" opacity=".5"/><circle cx="257.0" cy="501.0" r="2.2" fill="#6b5947" opacity=".5"/><circle cx="361.1" cy="498.2" r="3.2" fill="#6b5947" opacity=".5"/><circle cx="579.1" cy="452.8" r="3.1" fill="#6b5947" opacity=".5"/><circle cx="451.2" cy="469.7" r="2.5" fill="#6b5947" opacity=".5"/><circle cx="388.7" cy="389.9" r="3.5" fill="#6b5947" opacity=".5"/></g><path d="M 250.0,330.0 L 250.8,334.3 L 251.6,338.7 L 252.5,343.0 L 253.3,347.3 L 254.1,351.7 L 254.9,356.0 L 255.8,360.3 L 256.6,364.7 L 257.4,369.0 L 258.2,373.3 L 259.0,377.7 L 259.9,382.0 L 260.7,386.3 L 261.5,390.7 L 262.3,395.0 L 263.2,399.3 L 264.0,403.7 L 264.8,408.0 L 265.6,412.3 L 266.4,416.7 L 267.3,421.0 L 268.1,425.3 L 268.9,429.7 L 269.7,434.0 L 270.6,438.3 L 271.4,442.7 L 272.2,447.0 L 273.0,451.3 L 273.8,455.7 L 274.7,460.0 L 275.5,464.3 L 276.3,468.7 L 277.1,473.0 L 278.0,477.3 L 278.8,481.7 L 279.6,486.0 L 280.4,490.3 L 281.2,494.7 L 282.1,499.0 L 282.9,503.3 L 283.7,507.7 L 284.5,512.0 L 285.4,516.3 L 286.2,520.7 L 287.0,525.0 L 287.8,529.3 L 288.6,533.7 L 289.5,538.0 L 290.3,542.3 L 291.1,546.7 L 291.9,551.0 L 292.8,555.3 L 293.6,559.7 L 294.4,564.0 L 295.2,568.3 L 296.0,572.7 L 296.9,577.0 L 297.7,581.3 L 298.5,585.7 L 299.3,590.0 L 300.2,594.3 L 301.0,598.7 L 301.8,603.0 L 302.6,607.3 L 303.4,611.7 L 304.3,616.0 L 305.1,620.3 L 305.9,624.7 L 306.7,629.0 L 307.6,633.3 L 308.4,637.7 L 309.2,642.0 L 310.0,646.3 L 310.8,650.7 L 311.7,655.0 L 312.5,659.3 L 313.3,663.7 L 314.1,668.0 L 315.0,672.3 L 315.8,676.7 L 316.6,681.0 L 317.4,685.3 L 318.2,689.7 L 319.1,694.0 L 319.9,698.3 L 320.7,702.7 L 321.5,707.0 L 322.4,711.3 L 323.2,715.7 L 324.0,720.0 L 676.0,720.0 L 676.8,715.7 L 677.6,711.3 L 678.5,707.0 L 679.3,702.7 L 680.1,698.3 L 680.9,694.0 L 681.8,689.7 L 682.6,685.3 L 683.4,681.0 L 684.2,676.7 L 685.0,672.3 L 685.9,668.0 L 686.7,663.7 L 687.5,659.3 L 688.3,655.0 L 689.2,650.7 L 690.0,646.3 L 690.8,642.0 L 691.6,637.7 L 692.4,633.3 L 693.3,629.0 L 694.1,624.7 L 694.9,620.3 L 695.7,616.0 L 696.6,611.7 L 697.4,607.3 L 698.2,603.0 L 699.0,598.7 L 699.8,594.3 L 700.7,590.0 L 701.5,585.7 L 702.3,581.3 L 703.1,577.0 L 704.0,572.7 L 704.8,568.3 L 705.6,564.0 L 706.4,559.7 L 707.2,555.3 L 708.1,551.0 L 708.9,546.7 L 709.7,542.3 L 710.5,538.0 L 711.4,533.7 L 712.2,529.3 L 713.0,525.0 L 713.8,520.7 L 714.6,516.3 L 715.5,512.0 L 716.3,507.7 L 717.1,503.3 L 717.9,499.0 L 718.8,494.7 L 719.6,490.3 L 720.4,486.0 L 721.2,481.7 L 722.0,477.3 L 722.9,473.0 L 723.7,468.7 L 724.5,464.3 L 725.3,460.0 L 726.2,455.7 L 727.0,451.3 L 727.8,447.0 L 728.6,442.7 L 729.4,438.3 L 730.3,434.0 L 731.1,429.7 L 731.9,425.3 L 732.7,421.0 L 733.6,416.7 L 734.4,412.3 L 735.2,408.0 L 736.0,403.7 L 736.8,399.3 L 737.7,395.0 L 738.5,390.7 L 739.3,386.3 L 740.1,382.0 L 741.0,377.7 L 741.8,373.3 L 742.6,369.0 L 743.4,364.7 L 744.2,360.3 L 745.1,356.0 L 745.9,351.7 L 746.7,347.3 L 747.5,343.0 L 748.4,338.7 L 749.2,334.3 L 750.0,330.0 Z" fill="url(#g6L)"/><path d="M 250.0,330.0 L 250.8,334.3 L 251.6,338.7 L 252.5,343.0 L 253.3,347.3 L 254.1,351.7 L 254.9,356.0 L 255.8,360.3 L 256.6,364.7 L 257.4,369.0 L 258.2,373.3 L 259.0,377.7 L 259.9,382.0 L 260.7,386.3 L 261.5,390.7 L 262.3,395.0 L 263.2,399.3 L 264.0,403.7 L 264.8,408.0 L 265.6,412.3 L 266.4,416.7 L 267.3,421.0 L 268.1,425.3 L 268.9,429.7 L 269.7,434.0 L 270.6,438.3 L 271.4,442.7 L 272.2,447.0 L 273.0,451.3 L 273.8,455.7 L 274.7,460.0 L 275.5,464.3 L 276.3,468.7 L 277.1,473.0 L 278.0,477.3 L 278.8,481.7 L 279.6,486.0 L 280.4,490.3 L 281.2,494.7 L 282.1,499.0 L 282.9,503.3 L 283.7,507.7 L 284.5,512.0 L 285.4,516.3 L 286.2,520.7 L 287.0,525.0 L 287.8,529.3 L 288.6,533.7 L 289.5,538.0 L 290.3,542.3 L 291.1,546.7 L 291.9,551.0 L 292.8,555.3 L 293.6,559.7 L 294.4,564.0 L 295.2,568.3 L 296.0,572.7 L 296.9,577.0 L 297.7,581.3 L 298.5,585.7 L 299.3,590.0 L 300.2,594.3 L 301.0,598.7 L 301.8,603.0 L 302.6,607.3 L 303.4,611.7 L 304.3,616.0 L 305.1,620.3 L 305.9,624.7 L 306.7,629.0 L 307.6,633.3 L 308.4,637.7 L 309.2,642.0 L 310.0,646.3 L 310.8,650.7 L 311.7,655.0 L 312.5,659.3 L 313.3,663.7 L 314.1,668.0 L 315.0,672.3 L 315.8,676.7 L 316.6,681.0 L 317.4,685.3 L 318.2,689.7 L 319.1,694.0 L 319.9,698.3 L 320.7,702.7 L 321.5,707.0 L 322.4,711.3 L 323.2,715.7 L 324.0,720.0 L 676.0,720.0 L 676.8,715.7 L 677.6,711.3 L 678.5,707.0 L 679.3,702.7 L 680.1,698.3 L 680.9,694.0 L 681.8,689.7 L 682.6,685.3 L 683.4,681.0 L 684.2,676.7 L 685.0,672.3 L 685.9,668.0 L 686.7,663.7 L 687.5,659.3 L 688.3,655.0 L 689.2,650.7 L 690.0,646.3 L 690.8,642.0 L 691.6,637.7 L 692.4,633.3 L 693.3,629.0 L 694.1,624.7 L 694.9,620.3 L 695.7,616.0 L 696.6,611.7 L 697.4,607.3 L 698.2,603.0 L 699.0,598.7 L 699.8,594.3 L 700.7,590.0 L 701.5,585.7 L 702.3,581.3 L 703.1,577.0 L 704.0,572.7 L 704.8,568.3 L 705.6,564.0 L 706.4,559.7 L 707.2,555.3 L 708.1,551.0 L 708.9,546.7 L 709.7,542.3 L 710.5,538.0 L 711.4,533.7 L 712.2,529.3 L 713.0,525.0 L 713.8,520.7 L 714.6,516.3 L 715.5,512.0 L 716.3,507.7 L 717.1,503.3 L 717.9,499.0 L 718.8,494.7 L 719.6,490.3 L 720.4,486.0 L 721.2,481.7 L 722.0,477.3 L 722.9,473.0 L 723.7,468.7 L 724.5,464.3 L 725.3,460.0 L 726.2,455.7 L 727.0,451.3 L 727.8,447.0 L 728.6,442.7 L 729.4,438.3 L 730.3,434.0 L 731.1,429.7 L 731.9,425.3 L 732.7,421.0 L 733.6,416.7 L 734.4,412.3 L 735.2,408.0 L 736.0,403.7 L 736.8,399.3 L 737.7,395.0 L 738.5,390.7 L 739.3,386.3 L 740.1,382.0 L 741.0,377.7 L 741.8,373.3 L 742.6,369.0 L 743.4,364.7 L 744.2,360.3 L 745.1,356.0 L 745.9,351.7 L 746.7,347.3 L 747.5,343.0 L 748.4,338.7 L 749.2,334.3 L 750.0,330.0 Z" fill="none" stroke="#241b14" stroke-opacity=".3" stroke-width="2.5"/><ellipse cx="500" cy="330" rx="250.0" ry="55" fill="#2e2419"/><ellipse cx="500" cy="336" rx="234.0" ry="51" fill="#4a3a28"/><ellipse cx="500" cy="330" rx="250.0" ry="55" fill="none" stroke="#241b14" stroke-opacity=".4" stroke-width="2.5"/><ellipse cx="500" cy="716" rx="26" ry="9" fill="#241b14" fill-opacity=".45"/></svg>